<svg width="65" height="65" viewBox="0 0 32 32" xmlns="http://www.w3.org/2000/svg" xmlns:xlink="http://www.w3.org/1999/xlink" id="Icons" overflow="hidden"><path d="M25.3677 13.6438 13.4141 13.6438C13.1379 13.6438 12.9141 13.4199 12.9141 13.1438 12.9141 12.8676 13.1379 12.6438 13.4141 12.6438L25.3677 12.6438C25.6438 12.6438 25.8677 12.8676 25.8677 13.1438 25.8677 13.4199 25.6438 13.6438 25.3677 13.6438Z" fill="#00A3E0"/><path d="M25.3677 17.8186 18.7451 17.8186C18.469 17.8186 18.2451 17.5947 18.2451 17.3186 18.2451 17.0424 18.469 16.8186 18.7451 16.8186L25.3677 16.8186C25.6438 16.8186 25.8677 17.0424 25.8677 17.3186 25.8677 17.5947 25.6438 17.8186 25.3677 17.8186Z" fill="#00A3E0"/><path d="M18.2344 17.4875 11.4668 17.4875C11.1907 17.4875 10.9668 17.2637 10.9668 16.9875 10.9668 16.7114 11.1907 16.4875 11.4668 16.4875L18.2344 16.4875C18.5105 16.4875 18.7344 16.7114 18.7344 16.9875 18.7344 17.2637 18.5105 17.4875 18.2344 17.4875Z" fill="#00A3E0"/><path d="M25.3677 22.0842 17.6338 22.0842C17.3576 22.0842 17.1338 21.8604 17.1338 21.5842 17.1338 21.3081 17.3576 21.0842 17.6338 21.0842L25.3677 21.0842C25.6438 21.0842 25.8677 21.3081 25.8677 21.5842 25.8677 21.8604 25.6438 22.0842 25.3677 22.0842Z" fill="#00A3E0"/><path d="M17.3911 21.7453 11.4668 21.7453C11.1907 21.7453 10.9668 21.5215 10.9668 21.2453 10.9668 20.9692 11.1907 20.7453 11.4668 20.7453L17.3911 20.7453C17.6673 20.7453 17.8911 20.9692 17.8911 21.2453 17.8911 21.5215 17.6673 21.7453 17.3911 21.7453Z" fill="#00A3E0"/><path d="M11.3071 14.1653C11.0311 14.1654 10.8073 13.9418 10.8071 13.6658 10.8071 13.6657 10.8071 13.6655 10.8071 13.6653L10.8071 4.62035C10.807 4.34437 11.0306 4.12051 11.3066 4.12035 11.3067 4.12035 11.3069 4.12035 11.3071 4.12035L23.5049 4.12035C23.781 4.12035 24.0049 4.34421 24.0049 4.62035 24.0049 4.89649 23.781 5.12035 23.5049 5.12035L11.8071 5.12035 11.8071 13.6653C11.8073 13.9413 11.5837 14.1651 11.3077 14.1653 11.3075 14.1653 11.3073 14.1653 11.3071 14.1653Z" fill="#00A3E0"/><path d="M27.4746 27.8801 11.3071 27.8801C11.0311 27.8803 10.8073 27.6567 10.8071 27.3807 10.8071 27.3805 10.8071 27.3803 10.8071 27.3801L10.8071 22.9778C10.8071 22.7016 11.031 22.4778 11.3071 22.4778 11.5833 22.4778 11.8071 22.7016 11.8071 22.9778L11.8071 26.8801 26.9746 26.8801 26.9746 9.23266C26.9746 8.95652 27.1985 8.73266 27.4746 8.73266 27.7508 8.73266 27.9746 8.95652 27.9746 9.23266L27.9746 27.3801C27.9748 27.6561 27.7512 27.88 27.4752 27.8801 27.475 27.8801 27.4748 27.8801 27.4746 27.8801Z" fill="#00A3E0"/><path d="M27.4624 9.67406 23.5762 9.67406C23.3002 9.67422 23.0763 9.45062 23.0762 9.17464 23.0762 9.17445 23.0762 9.17425 23.0762 9.17406L23.0762 4.67894C23.0761 4.40274 23.3 4.17881 23.5762 4.17879 23.7215 4.17877 23.8596 4.24192 23.9546 4.3518L27.8408 8.84691C28.0214 9.05604 27.9982 9.37193 27.7891 9.55247 27.6983 9.63085 27.5823 9.674 27.4624 9.67406ZM24.0762 8.67406 26.3692 8.67406 24.0762 6.02172Z" fill="#00A3E0"/><path d="M13.6152 23.9328C10.5052 23.9293 7.98499 21.409 7.98145 18.2991L7.98145 18.2991C7.98145 15.1876 10.5038 12.6653 13.6152 12.6653 16.7267 12.6653 19.249 15.1876 19.249 18.2991 19.249 21.4105 16.7267 23.9328 13.6152 23.9328ZM13.6152 13.6653C11.0561 13.6652 8.9815 15.7398 8.98145 18.2989 8.98145 18.2989 8.98145 18.299 8.98145 18.2991L8.98145 18.2991C8.98145 20.8582 11.0561 22.9328 13.6152 22.9328 16.1744 22.9328 18.249 20.8582 18.249 18.2991 18.249 15.7399 16.1744 13.6653 13.6152 13.6653Z" fill="#00A3E0"/><path d="M5.75146 28.2112C5.61883 28.2113 5.4916 28.1586 5.39795 28.0647L3.81885 26.4856C3.62362 26.2904 3.62354 25.974 3.81869 25.7788 3.81874 25.7787 3.8188 25.7786 3.81885 25.7786L8.75685 20.8411C8.85058 20.7473 8.97775 20.6946 9.11036 20.6946L9.11036 20.6946C9.24297 20.6946 9.37015 20.7473 9.46388 20.8411L11.0425 22.4202C11.2377 22.6154 11.2378 22.9318 11.0426 23.1271 11.0426 23.1271 11.0425 23.1272 11.0425 23.1272L6.105 28.0647C6.01134 28.1586 5.8841 28.2113 5.75146 28.2112ZM4.87939 26.1321 5.75146 27.0041 9.98193 22.7737 9.11035 21.9016Z" fill="#00A3E0"/><path d="M8.67676 25.1633C8.54412 25.1635 8.4169 25.1108 8.32324 25.0168L6.86719 23.5598C6.67393 23.3626 6.67713 23.0461 6.87433 22.8528 7.06873 22.6623 7.3798 22.6623 7.57419 22.8528L9.03019 24.3098C9.22543 24.5051 9.2254 24.8217 9.03012 25.0169 8.93638 25.1107 8.80925 25.1633 8.67668 25.1634Z" fill="#00A3E0"/></svg>