<svg version="1.1" width="65" height="65" viewBox="0 0 32 32" xmlns="http://www.w3.org/2000/svg" xmlns:xlink="http://www.w3.org/1999/xlink" id="Icons" overflow="hidden"><path d=" M 23.8525 26.9155 C 23.7199 26.9157 23.5926 26.8629 23.499 26.769 L 18.7373 22.0073 C 18.5401 21.8141 18.5369 21.4975 18.7302 21.3003 C 18.9234 21.1031 19.24 21.0999 19.4372 21.2932 C 19.4396 21.2955 19.4419 21.2979 19.4443 21.3003 L 23.8525 25.7085 L 26.9048 22.6563 L 9.479 5.23047 L 6.42676 8.28223 L 13.2017 15.0571 C 13.3949 15.2543 13.3917 15.5709 13.1945 15.7641 C 13.0001 15.9546 12.6891 15.9546 12.4947 15.7641 L 5.36621 8.63574 C 5.17098 8.44058 5.17092 8.12411 5.36608 7.92887 C 5.36612 7.92883 5.36617 7.92878 5.36621 7.92874 L 9.12549 4.16992 C 9.32064 3.97469 9.63711 3.97462 9.83234 4.16977 C 9.83239 4.16982 9.83244 4.16987 9.83249 4.16992 L 27.9653 22.3027 C 28.1606 22.4979 28.1606 22.8144 27.9655 23.0096 C 27.9654 23.0096 27.9654 23.0097 27.9653 23.0097 L 24.2061 26.769 C 24.1124 26.8629 23.9852 26.9157 23.8525 26.9155 Z" fill="#005587"/><path d=" M 19.0908 22.1538 C 18.9579 22.1541 18.8304 22.1012 18.7368 22.0068 L 18.5933 21.8628 C 18.3993 21.6662 18.4015 21.3497 18.5981 21.1558 C 18.7931 20.9634 19.1067 20.9638 19.3013 21.1568 L 19.4448 21.3008 C 19.6398 21.4963 19.6393 21.8129 19.4437 22.0079 C 19.35 22.1013 19.2231 22.1537 19.0908 22.1538 Z" fill="#005587"/><path d=" M 24.7188 22.644 C 24.4426 22.644 24.2188 22.4201 24.2188 22.1439 C 24.2188 22.0114 24.2715 21.8842 24.3652 21.7905 L 25.4673 20.6884 C 25.6645 20.4952 25.981 20.4984 26.1743 20.6956 C 26.3648 20.89 26.3648 21.201 26.1743 21.3954 L 25.0722 22.4974 C 24.9786 22.5914 24.8514 22.6441 24.7188 22.644 Z" fill="#005587"/><path d=" M 22.189 21.4922 C 21.9129 21.4921 21.689 21.2683 21.6891 20.9921 C 21.6891 20.8595 21.7418 20.7324 21.8355 20.6387 L 23.6265 18.8472 C 23.8237 18.6539 24.1402 18.6571 24.3335 18.8543 C 24.524 19.0487 24.524 19.3598 24.3335 19.5542 L 22.5425 21.3457 C 22.4489 21.4396 22.3216 21.4923 22.189 21.4922 Z" fill="#005587"/><path d=" M 21.0366 18.9624 C 20.7605 18.9624 20.5367 18.7385 20.5367 18.4623 C 20.5367 18.3298 20.5894 18.2026 20.6831 18.1089 L 21.7856 17.0063 C 21.9789 16.8091 22.2954 16.8059 22.4926 16.9992 C 22.6898 17.1925 22.693 17.509 22.4998 17.7062 C 22.4974 17.7086 22.495 17.711 22.4926 17.7134 L 21.3901 18.8159 C 21.2965 18.9098 21.1692 18.9625 21.0366 18.9624 Z" fill="#005587"/><path d=" M 19.1958 17.1211 C 18.9197 17.121 18.6958 16.8971 18.6959 16.621 C 18.6959 16.4884 18.7486 16.3613 18.8423 16.2676 L 19.9443 15.1656 C 20.1415 14.9723 20.4581 14.9755 20.6513 15.1727 C 20.8418 15.3671 20.8418 15.6782 20.6513 15.8726 L 19.5493 16.9746 C 19.4557 17.0685 19.3284 17.1212 19.1958 17.1211 Z" fill="#005587"/><path d=" M 17.2832 15.2856 C 17.0071 15.2858 16.7831 15.062 16.783 14.7859 C 16.7829 14.6481 16.8397 14.5164 16.9399 14.4219 L 18.1138 13.3145 C 18.3139 13.1241 18.6305 13.132 18.8209 13.3321 C 19.0113 13.5323 19.0033 13.8489 18.8032 14.0393 C 18.8022 14.0402 18.8013 14.0411 18.8003 14.042 L 17.6265 15.1494 C 17.5336 15.2369 17.4108 15.2857 17.2832 15.2856 Z" fill="#005587"/><path d=" M 15.5142 13.4395 C 15.238 13.4394 15.0142 13.2155 15.0142 12.9394 C 15.0143 12.8068 15.0669 12.6797 15.1606 12.5859 L 16.2627 11.4834 C 16.4599 11.2901 16.7764 11.2933 16.9697 11.4905 C 17.1602 11.6849 17.1602 11.996 16.9697 12.1904 L 15.8677 13.2929 C 15.774 13.3869 15.6468 13.4396 15.5142 13.4395 Z" fill="#005587"/><path d=" M 13.6728 11.5986 C 13.3967 11.5986 13.1729 11.3747 13.1729 11.0985 C 13.173 10.966 13.2256 10.8389 13.3193 10.7451 L 14.4219 9.64258 C 14.6191 9.44932 14.9356 9.45252 15.1289 9.64972 C 15.3194 9.84412 15.3194 10.1552 15.1289 10.3496 L 14.0263 11.4521 C 13.9327 11.546 13.8055 11.5988 13.6728 11.5986 Z" fill="#005587"/><path d=" M 9.99121 7.9165 C 9.71507 7.91645 9.49125 7.69255 9.49131 7.4164 C 9.49133 7.28385 9.54399 7.15674 9.6377 7.063 L 10.7397 5.96095 C 10.937 5.76769 11.2535 5.77089 11.4467 5.96809 C 11.6373 6.16249 11.6373 6.47356 11.4467 6.66795 L 10.3447 7.77 C 10.2511 7.86393 10.1238 7.91666 9.99121 7.9165 Z" fill="#005587"/><path d=" M 11.1431 10.4463 C 10.8669 10.4463 10.6431 10.2224 10.6431 9.94622 C 10.6432 9.81365 10.6958 9.68652 10.7895 9.59277 L 12.581 7.80177 C 12.7743 7.60457 13.0908 7.60137 13.288 7.79463 C 13.4853 7.98789 13.4885 8.30442 13.2952 8.50163 C 13.2928 8.50403 13.2905 8.50641 13.288 8.50877 L 11.4965 10.2998 C 11.4029 10.3937 11.2757 10.4464 11.1431 10.4463 Z" fill="#005587"/><path d=" M 12.4263 28.4297 C 8.68733 28.4236 5.65882 25.3923 5.65627 21.6533 C 5.65481 21.5044 5.65383 21.4375 5.65676 21.3706 C 5.66703 21.1022 5.88768 20.89 6.15627 20.8901 L 11.9507 20.8901 L 11.9507 15.3774 C 11.9506 15.2446 12.0035 15.1172 12.0977 15.0234 C 12.1969 14.9372 12.3216 14.886 12.4527 14.8774 C 16.195 14.8918 19.2171 17.9372 19.2028 21.6796 C 19.1884 25.4119 16.1587 28.4299 12.4263 28.4297 Z M 6.66455 21.8901 C 6.79772 25.0749 9.48744 27.5487 12.6722 27.4155 C 15.857 27.2824 18.3308 24.5927 18.1976 21.4079 C 18.0767 18.5163 15.833 16.1614 12.9507 15.9009 L 12.9507 21.3901 C 12.9508 21.6661 12.7272 21.89 12.4512 21.8901 C 12.4511 21.8901 12.4509 21.8901 12.4507 21.8901 Z" fill="#005587"/><path d=" M 9.97266 19.3501 L 4.39355 19.3501 C 4.12424 19.3502 3.90331 19.1368 3.89404 18.8677 L 3.88818 18.6206 C 3.78007 15.4948 6.22637 12.8733 9.35214 12.7652 C 9.48245 12.7606 9.61287 12.7606 9.74318 12.7651 L 9.74318 13.2651 L 9.8135 12.7647 L 9.99172 12.7656 C 10.2602 12.7759 10.4727 12.9965 10.4727 13.2652 L 10.4727 18.8502 C 10.4728 19.1261 10.2492 19.35 9.97322 19.3501 C 9.97303 19.3501 9.97285 19.3501 9.97266 19.3501 Z M 4.89453 18.3501 L 9.47266 18.3501 L 9.47266 13.7715 C 6.96416 13.8194 4.9422 15.8416 4.89453 18.3501 Z" fill="#005587"/><path d=" M 8.11133 26.7485 C 7.83519 26.7487 7.61122 26.5249 7.61109 26.2488 C 7.61103 26.1265 7.65576 26.0085 7.73682 25.917 L 12.0503 21.0415 C 12.2345 20.8357 12.5508 20.8182 12.7566 21.0025 C 12.9608 21.1853 12.9798 21.4984 12.7993 21.7046 L 8.48584 26.5801 C 8.39094 26.6873 8.25455 26.7487 8.11133 26.7485 Z" fill="#005587"/><path d=" M 15.5005 27.1113 C 15.3231 27.1114 15.1589 27.0176 15.0689 26.8647 L 11.9917 21.6265 C 11.8514 21.3885 11.9305 21.0819 12.1684 20.9416 C 12.4064 20.8013 12.713 20.8805 12.8533 21.1184 C 12.8535 21.1188 12.8538 21.1192 12.854 21.1196 L 15.9312 26.3579 C 16.0711 26.5959 15.9917 26.9023 15.7537 27.0423 C 15.677 27.0875 15.5895 27.1113 15.5005 27.1113 Z" fill="#005587"/></svg>