<svg width="65" height="65" viewBox="0 0 32 32" xmlns="http://www.w3.org/2000/svg" xmlns:xlink="http://www.w3.org/1999/xlink" id="Icons" overflow="hidden"><path d="M29.3433 22.2061 19.4712 22.2061C19.195 22.2061 18.9712 21.9822 18.9712 21.7061 18.9712 21.4299 19.195 21.2061 19.4712 21.2061L28.8335 21.2061C28.5573 14.1183 22.5877 8.59645 15.4999 8.87264 8.79949 9.13374 3.4276 14.5056 3.1665 21.2061L13.3638 21.2061C13.6399 21.2061 13.8638 21.4299 13.8638 21.7061 13.8638 21.9822 13.6399 22.2061 13.3638 22.2061L2.65674 22.2061C2.38076 22.2062 2.1569 21.9826 2.15674 21.7066 2.15674 21.7064 2.15674 21.7062 2.15674 21.7061 2.15674 14.0606 8.35458 7.86279 16 7.86279 23.6454 7.86279 29.8433 14.0606 29.8433 21.7061 29.8434 21.982 29.6198 22.2059 29.3438 22.2061 29.3436 22.2061 29.3435 22.2061 29.3433 22.2061Z" fill="#005587"/><path d="M16 11.8032C15.724 11.8034 15.5002 11.5798 15.5 11.3038 15.5 11.3036 15.5 11.3034 15.5 11.3032L15.5 8.36279C15.5 8.08665 15.7239 7.86279 16 7.86279 16.2761 7.86279 16.5 8.08665 16.5 8.36279L16.5 11.3032C16.5002 11.5792 16.2766 11.8031 16.0006 11.8032 16.0004 11.8032 16.0002 11.8032 16 11.8032Z" fill="#005587"/><path d="M8.729 15.0552C8.59636 15.0553 8.46914 15.0026 8.37549 14.9087L6.29639 12.8296C6.10313 12.6324 6.10633 12.3159 6.30353 12.1226 6.49793 11.9321 6.809 11.9321 7.00339 12.1226L9.08249 14.2017C9.27773 14.397 9.2777 14.7136 9.08242 14.9088 8.98867 15.0025 8.86154 15.0552 8.72897 15.0552Z" fill="#005587"/><path d="M23.0313 15.0552C22.7551 15.0551 22.5313 14.8313 22.5313 14.5551 22.5313 14.4225 22.584 14.2954 22.6777 14.2017L24.7568 12.1226C24.954 11.9293 25.2706 11.9325 25.4638 12.1297 25.6543 12.3241 25.6543 12.6352 25.4638 12.8296L23.3847 14.9087C23.2911 15.0026 23.1639 15.0553 23.0313 15.0552Z" fill="#005587"/><path d="M16.2373 24.1382C14.3849 24.1385 12.8829 22.6371 12.8826 20.7846 12.8823 19.3954 13.7385 18.1498 15.0356 17.6523 15.0839 17.6342 15.1346 17.6235 15.186 17.6206L24.561 17.0942C24.8366 17.0787 25.0726 17.2894 25.0882 17.565 25.0973 17.7267 25.0275 17.8829 24.9009 17.9839L17.5615 23.8408C17.5211 23.8731 17.476 23.8989 17.4277 23.9175 17.0477 24.063 16.6442 24.1378 16.2373 24.1382ZM15.3232 18.6143C14.1247 19.1166 13.5604 20.4954 14.0628 21.6939 14.5425 22.8384 15.8286 23.4136 17.0015 23.0083L23.0518 18.1801Z" fill="#005587"/></svg>